# xmcd
#
# Track frame offsets:
# 150
# 14569
# 27294
# 40987
# 54416
# 67751
# 80417
# 94297
# 108050
# 122877
# 137978
# 150994
# 164265
# 177738
# 191799
# 203328
# 215746
# 228114
# 240202
# 252254
# 264798
# 276267
# 289605
# 303057
#
# Disc length: 4196 seconds
#
# Revision: 0
# Processed by: cddbd v1.4PL0 Copyright (c) Steve Scherf et al.
# Submitted via: Axialis_AX_CDPlayer 2.6
#
DISCID=41106218
DTITLE=Memphis Minnie - Black Widow Stinger
DYEAR=1999
DGENRE=General Blues
TTITLE0=Don't Bother It
TTITLE1=Today Today Blues
TTITLE2=Outdoor Blues
TTITLE3=My Butcher Man
TTITLE4=Too Late
TTITLE5=Squat It
TTITLE6=Moanin' the Blues
TTITLE7=Sylvester and his Mule Blues
TTITLE8=Reachin' Pete
TTITLE9=Biting Dog Blues
TTITLE10=You Ain't Done Nothing to Me
TTITLE11=Black Cat Blues
TTITLE12=Good Morning
TTITLE13=Its Hard to be Mistreated
TTITLE14=Walking and Crying Blues
TTITLE15=You Caught Me Wrong Again
TTITLE16=I Hate to See the Sun Go Down
TTITLE17=Black Widow Stinger
TTITLE18=Don't Lead My Baby Wrong
TTITLE19=Its Hard to Please My Man
TTITLE20=Down By The Riverside
TTITLE21=I Got to Make a Change Blues
TTITLE22=This is Your Last Chance
TTITLE23=You Got to Get Out of Here
EXTD=
EXTT0=
EXTT1=
EXTT2=
EXTT3=
EXTT4=
EXTT5=
EXTT6=
EXTT7=
EXTT8=
EXTT9=
EXTT10=
EXTT11=
EXTT12=
EXTT13=
EXTT14=
EXTT15=
EXTT16=
EXTT17=
EXTT18=
EXTT19=
EXTT20=
EXTT21=
EXTT22=
EXTT23=
PLAYORDER=
